<?xml version="1.0" encoding="UTF-8" standalone="no"?>
<!DOCTYPE svg PUBLIC "-//W3C//DTD SVG 1.1//EN"
 "http://www.w3.org/Graphics/SVG/1.1/DTD/svg11.dtd">
<!-- Generated by graphviz version 13.0.0 (20250608.1624)
 -->
<!-- Title: G Pages: 1 -->
<svg width="606pt" height="657pt"
 viewBox="0.00 0.00 606.00 657.00" xmlns="http://www.w3.org/2000/svg" xmlns:xlink="http://www.w3.org/1999/xlink">
<g id="graph0" class="graph" transform="scale(1 1) rotate(0) translate(4 653)">
<title>G</title><style>.edge>path:hover{stroke-width:8}</style>
<polygon fill="white" stroke="none" points="-4,4 -4,-653 602.13,-653 602.13,4 -4,4"/>
<!-- app_py -->
<g id="node1" class="node">
<title>app_py</title><style>.edge>path:hover{stroke-width:8}</style>
<ellipse fill="#9f5656" stroke="black" cx="498.6" cy="-18" rx="27" ry="18"/>
<text xml:space="preserve" text-anchor="middle" x="498.6" y="-14.12" font-family="Helvetica,sans-Serif" font-size="10.00" fill="#ffffff">app.py</text>
</g>
<!-- flask -->
<g id="node2" class="node">
<title>flask</title><style>.edge>path:hover{stroke-width:8}</style>
<polygon fill="blue" stroke="black" points="264.6,-145 210.6,-145 210.6,-109 264.6,-109 264.6,-145"/>
<text xml:space="preserve" text-anchor="middle" x="237.6" y="-123.12" font-family="Helvetica,sans-Serif" font-size="10.00" fill="white">flask</text>
</g>
<!-- flask&#45;&gt;app_py -->
<g id="edge1" class="edge">
<title>flask&#45;&gt;app_py</title><style>.edge>path:hover{stroke-width:8}</style>
<path fill="none" stroke="black" d="M498.6,-72C503.31,-64.92 504.62,-56.04 504.37,-47.59"/>
<polygon fill="blue" stroke="black" points="507.86,-47.24 503.33,-37.66 500.89,-47.97 507.86,-47.24"/>
<path fill="none" stroke="black" d="M265,-125.07C326.63,-122.29 472.84,-111.67 498.6,-73"/>
</g>
<!-- flask_app -->
<g id="node3" class="node">
<title>flask_app</title><style>.edge>path:hover{stroke-width:8}</style>
<polygon fill="blue" stroke="black" points="277.47,-577 221.72,-577 221.72,-541 277.47,-541 277.47,-577"/>
<text xml:space="preserve" text-anchor="middle" x="249.6" y="-555.12" font-family="Helvetica,sans-Serif" font-size="10.00" fill="white">flask.app</text>
</g>
<!-- flask_app&#45;&gt;flask -->
<g id="edge2" class="edge">
<title>flask_app&#45;&gt;flask</title><style>.edge>path:hover{stroke-width:8}</style>
<path fill="none" stroke="black" d="M439.6,-198C409.23,-140.4 325.62,-128.87 276,-127.32"/>
<polygon fill="blue" stroke="black" points="276.34,-123.83 266.28,-127.15 276.22,-130.83 276.34,-123.83"/>
<path fill="none" stroke="black" d="M277.83,-546.87C321.79,-527.45 401.6,-482.99 401.6,-416 401.6,-416 401.6,-416 401.6,-342 401.6,-341.49 439.84,-200.45 439.6,-200"/>
</g>
<!-- flask_ctx -->
<g id="node6" class="node">
<title>flask_ctx</title><style>.edge>path:hover{stroke-width:8}</style>
<polygon fill="blue" stroke="black" points="183.6,-505 129.6,-505 129.6,-469 183.6,-469 183.6,-505"/>
<text xml:space="preserve" text-anchor="middle" x="156.6" y="-483.12" font-family="Helvetica,sans-Serif" font-size="10.00" fill="white">flask.ctx</text>
</g>
<!-- flask_app&#45;&gt;flask_ctx -->
<g id="edge3" class="edge">
<title>flask_app&#45;&gt;flask_ctx</title><style>.edge>path:hover{stroke-width:8}</style>
<path fill="none" stroke="black" d="M217.46,-533.81C208.13,-526.79 197.94,-519.12 188.62,-512.1"/>
<polygon fill="blue" stroke="black" points="215.31,-536.57 225.4,-539.79 219.52,-530.98 215.31,-536.57"/>
<polygon fill="blue" stroke="black" points="190.95,-509.47 180.86,-506.26 186.74,-515.07 190.95,-509.47"/>
</g>
<!-- flask_globals -->
<g id="node7" class="node">
<title>flask_globals</title><style>.edge>path:hover{stroke-width:8}</style>
<polygon fill="blue" stroke="black" points="221.97,-433 151.22,-433 151.22,-397 221.97,-397 221.97,-433"/>
<text xml:space="preserve" text-anchor="middle" x="186.6" y="-411.12" font-family="Helvetica,sans-Serif" font-size="10.00" fill="white">flask.globals</text>
</g>
<!-- flask_app&#45;&gt;flask_globals -->
<g id="edge4" class="edge">
<title>flask_app&#45;&gt;flask_globals</title><style>.edge>path:hover{stroke-width:8}</style>
<path fill="none" stroke="black" d="M237.34,-530.37C226.2,-505.26 209.85,-468.41 198.74,-443.37"/>
<polygon fill="blue" stroke="black" points="234.01,-531.48 241.26,-539.2 240.4,-528.64 234.01,-531.48"/>
<polygon fill="blue" stroke="black" points="202.06,-442.22 194.81,-434.49 195.66,-445.05 202.06,-442.22"/>
</g>
<!-- flask_templating -->
<g id="node11" class="node">
<title>flask_templating</title><style>.edge>path:hover{stroke-width:8}</style>
<polygon fill="blue" stroke="black" points="356.1,-217 295.1,-217 295.1,-181 356.1,-181 356.1,-217"/>
<text xml:space="preserve" text-anchor="middle" x="325.6" y="-200.75" font-family="Helvetica,sans-Serif" font-size="10.00" fill="white">flask.</text>
<text xml:space="preserve" text-anchor="middle" x="325.6" y="-189.5" font-family="Helvetica,sans-Serif" font-size="10.00" fill="white">templating</text>
</g>
<!-- flask_app&#45;&gt;flask_templating -->
<g id="edge5" class="edge">
<title>flask_app&#45;&gt;flask_templating</title><style>.edge>path:hover{stroke-width:8}</style>
<path fill="none" stroke="black" d="M273.3,-532.36C295.61,-505.48 325.6,-460.97 325.6,-416 325.6,-416 325.6,-416 325.6,-342 325.6,-302.74 325.6,-257.38 325.6,-228.69"/>
<polygon fill="blue" stroke="black" points="270.93,-529.75 267.08,-539.62 276.24,-534.31 270.93,-529.75"/>
<polygon fill="blue" stroke="black" points="329.1,-229 325.6,-219 322.1,-229 329.1,-229"/>
</g>
<!-- flask_blueprints -->
<g id="node4" class="node">
<title>flask_blueprints</title><style>.edge>path:hover{stroke-width:8}</style>
<polygon fill="blue" stroke="black" points="142.6,-217 84.6,-217 84.6,-181 142.6,-181 142.6,-217"/>
<text xml:space="preserve" text-anchor="middle" x="113.6" y="-200.75" font-family="Helvetica,sans-Serif" font-size="10.00" fill="white">flask.</text>
<text xml:space="preserve" text-anchor="middle" x="113.6" y="-189.5" font-family="Helvetica,sans-Serif" font-size="10.00" fill="white">blueprints</text>
</g>
<!-- flask_blueprints&#45;&gt;flask -->
<g id="edge6" class="edge">
<title>flask_blueprints&#45;&gt;flask</title><style>.edge>path:hover{stroke-width:8}</style>
<path fill="none" stroke="black" d="M142.99,-181.41C160.15,-171.72 181.97,-159.4 200.33,-149.04"/>
<polygon fill="blue" stroke="black" points="201.82,-152.22 208.81,-144.25 198.38,-146.12 201.82,-152.22"/>
</g>
<!-- flask_config -->
<g id="node5" class="node">
<title>flask_config</title><style>.edge>path:hover{stroke-width:8}</style>
<ellipse fill="#85b653" stroke="black" cx="237.6" cy="-199" rx="39.2" ry="18"/>
<text xml:space="preserve" text-anchor="middle" x="237.6" y="-195.12" font-family="Helvetica,sans-Serif" font-size="10.00" fill="#000000">flask.config</text>
</g>
<!-- flask_config&#45;&gt;flask -->
<g id="edge7" class="edge">
<title>flask_config&#45;&gt;flask</title><style>.edge>path:hover{stroke-width:8}</style>
<path fill="none" stroke="black" d="M237.6,-180.7C237.6,-173.41 237.6,-164.73 237.6,-156.54"/>
<polygon fill="#85b653" stroke="black" points="241.1,-156.62 237.6,-146.62 234.1,-156.62 241.1,-156.62"/>
</g>
<!-- flask_ctx&#45;&gt;flask -->
<g id="edge8" class="edge">
<title>flask_ctx&#45;&gt;flask</title><style>.edge>path:hover{stroke-width:8}</style>
<path fill="none" stroke="black" d="M133.1,-468.83C104.82,-446.94 57.88,-406.43 31.6,-361 11.09,-325.54 12.87,-312.63 7.6,-272"/>
<path fill="none" stroke="black" d="M7.6,-198C24.32,-162.97 138.17,-141.89 199.18,-132.98"/>
<polygon fill="blue" stroke="black" points="199.36,-136.49 208.77,-131.62 198.38,-129.56 199.36,-136.49"/>
<path fill="none" stroke="black" d="M7.6,-270C2.04,-239.39 -5.8,-228.08 7.6,-200"/>
</g>
<!-- flask_ctx&#45;&gt;flask_globals -->
<g id="edge10" class="edge">
<title>flask_ctx&#45;&gt;flask_globals</title><style>.edge>path:hover{stroke-width:8}</style>
<path fill="none" stroke="black" d="M168.44,-458.38C170.55,-453.45 172.75,-448.31 174.86,-443.39"/>
<polygon fill="blue" stroke="black" points="165.33,-456.74 164.61,-467.31 171.77,-459.49 165.33,-456.74"/>
<polygon fill="blue" stroke="black" points="177.95,-445.07 178.67,-434.5 171.52,-442.31 177.95,-445.07"/>
</g>
<!-- flask_globals&#45;&gt;flask -->
<g id="edge11" class="edge">
<title>flask_globals&#45;&gt;flask</title><style>.edge>path:hover{stroke-width:8}</style>
<path fill="none" stroke="black" d="M45.6,-342C30.18,-310.13 12.15,-307.11 7.6,-272"/>
<path fill="none" stroke="black" d="M151,-408.67C115.91,-401.19 64.82,-383.73 45.6,-344"/>
</g>
<!-- flask_globals&#45;&gt;flask_blueprints -->
<g id="edge13" class="edge">
<title>flask_globals&#45;&gt;flask_blueprints</title><style>.edge>path:hover{stroke-width:8}</style>
<path fill="none" stroke="black" d="M45.6,-342C31.48,-310.42 86.86,-319.8 102.6,-289 112.08,-270.44 114.66,-246.95 114.95,-228.76"/>
<polygon fill="blue" stroke="black" points="118.45,-228.9 114.87,-218.93 111.45,-228.95 118.45,-228.9"/>
</g>
<!-- flask_helpers -->
<g id="node8" class="node">
<title>flask_helpers</title><style>.edge>path:hover{stroke-width:8}</style>
<polygon fill="blue" stroke="black" points="259.35,-289 187.85,-289 187.85,-253 259.35,-253 259.35,-289"/>
<text xml:space="preserve" text-anchor="middle" x="223.6" y="-267.12" font-family="Helvetica,sans-Serif" font-size="10.00" fill="white">flask.helpers</text>
</g>
<!-- flask_globals&#45;&gt;flask_helpers -->
<g id="edge15" class="edge">
<title>flask_globals&#45;&gt;flask_helpers</title><style>.edge>path:hover{stroke-width:8}</style>
<path fill="none" stroke="black" d="M191.14,-396.59C197.41,-372.5 208.81,-328.75 216.3,-300.03"/>
<polygon fill="blue" stroke="black" points="219.63,-301.13 218.76,-290.58 212.85,-299.37 219.63,-301.13"/>
</g>
<!-- flask_json -->
<g id="node9" class="node">
<title>flask_json</title><style>.edge>path:hover{stroke-width:8}</style>
<polygon fill="blue" stroke="black" points="93.6,-289 35.6,-289 35.6,-253 93.6,-253 93.6,-289"/>
<text xml:space="preserve" text-anchor="middle" x="64.6" y="-267.12" font-family="Helvetica,sans-Serif" font-size="10.00" fill="white">flask.json</text>
</g>
<!-- flask_globals&#45;&gt;flask_json -->
<g id="edge16" class="edge">
<title>flask_globals&#45;&gt;flask_json</title><style>.edge>path:hover{stroke-width:8}</style>
<path fill="none" stroke="black" d="M45.6,-342C39.62,-328.62 43,-312.93 48.48,-299.8"/>
<polygon fill="blue" stroke="black" points="51.6,-301.38 52.75,-290.85 45.28,-298.37 51.6,-301.38"/>
</g>
<!-- flask_globals&#45;&gt;flask_templating -->
<g id="edge17" class="edge">
<title>flask_globals&#45;&gt;flask_templating</title><style>.edge>path:hover{stroke-width:8}</style>
<path fill="none" stroke="black" d="M198.07,-396.65C213.98,-372.55 243.61,-327.55 268.6,-289 282.03,-268.28 297.09,-244.75 308.36,-227.09"/>
<polygon fill="blue" stroke="black" points="311.28,-229.02 313.7,-218.71 305.38,-225.26 311.28,-229.02"/>
</g>
<!-- flask_wrappers -->
<g id="node12" class="node">
<title>flask_wrappers</title><style>.edge>path:hover{stroke-width:8}</style>
<polygon fill="blue" stroke="black" points="183.47,-361 103.72,-361 103.72,-325 183.47,-325 183.47,-361"/>
<text xml:space="preserve" text-anchor="middle" x="143.6" y="-339.12" font-family="Helvetica,sans-Serif" font-size="10.00" fill="white">flask.wrappers</text>
</g>
<!-- flask_globals&#45;&gt;flask_wrappers -->
<g id="edge18" class="edge">
<title>flask_globals&#45;&gt;flask_wrappers</title><style>.edge>path:hover{stroke-width:8}</style>
<path fill="none" stroke="black" d="M169.98,-386.95C166.73,-381.65 163.32,-376.1 160.07,-370.81"/>
<polygon fill="blue" stroke="black" points="166.96,-388.72 175.18,-395.41 172.93,-385.05 166.96,-388.72"/>
<polygon fill="blue" stroke="black" points="163.12,-369.08 154.9,-362.39 157.15,-372.75 163.12,-369.08"/>
</g>
<!-- flask_helpers&#45;&gt;flask -->
<g id="edge19" class="edge">
<title>flask_helpers&#45;&gt;flask</title><style>.edge>path:hover{stroke-width:8}</style>
<path fill="none" stroke="black" d="M197.78,-252.7C181.99,-239.75 165.68,-220.76 170.6,-200"/>
</g>
<!-- flask_helpers&#45;&gt;flask_app -->
<g id="edge20" class="edge">
<title>flask_helpers&#45;&gt;flask_app</title><style>.edge>path:hover{stroke-width:8}</style>
<path fill="none" stroke="black" d="M224.61,-289.2C226.5,-314.26 231.75,-362.32 245.66,-403.23"/>
<polygon fill="blue" stroke="black" points="242.36,-404.39 249.08,-412.58 248.93,-401.98 242.36,-404.39"/>
</g>
<!-- flask_helpers&#45;&gt;flask_blueprints -->
<g id="edge21" class="edge">
<title>flask_helpers&#45;&gt;flask_blueprints</title><style>.edge>path:hover{stroke-width:8}</style>
<path fill="none" stroke="black" d="M196.13,-252.52C182.24,-243.68 165.2,-232.84 150.22,-223.3"/>
<polygon fill="blue" stroke="black" points="152.32,-220.49 142,-218.07 148.56,-226.39 152.32,-220.49"/>
</g>
<!-- flask_helpers&#45;&gt;flask_templating -->
<g id="edge22" class="edge">
<title>flask_helpers&#45;&gt;flask_templating</title><style>.edge>path:hover{stroke-width:8}</style>
<path fill="none" stroke="black" d="M249.08,-252.52C261.83,-243.76 277.45,-233.04 291.25,-223.58"/>
<polygon fill="blue" stroke="black" points="292.94,-226.66 299.2,-218.12 288.98,-220.89 292.94,-226.66"/>
</g>
<!-- flask_json&#45;&gt;flask -->
<g id="edge24" class="edge">
<title>flask_json&#45;&gt;flask</title><style>.edge>path:hover{stroke-width:8}</style>
<path fill="none" stroke="black" d="M35.44,-252.95C16.86,-239.7 -2.05,-220.23 7.6,-200"/>
</g>
<!-- flask_signals -->
<g id="node10" class="node">
<title>flask_signals</title><style>.edge>path:hover{stroke-width:8}</style>
<ellipse fill="#85e722" stroke="black" cx="249.6" cy="-631" rx="41.86" ry="18"/>
<text xml:space="preserve" text-anchor="middle" x="249.6" y="-627.12" font-family="Helvetica,sans-Serif" font-size="10.00" fill="#000000">flask.signals</text>
</g>
<!-- flask_signals&#45;&gt;flask -->
<g id="edge26" class="edge">
<title>flask_signals&#45;&gt;flask</title><style>.edge>path:hover{stroke-width:8}</style>
<path fill="none" stroke="black" d="M439.6,-270C425.35,-242.34 455.83,-226.54 439.6,-200"/>
</g>
<!-- flask_signals&#45;&gt;flask_app -->
<g id="edge27" class="edge">
<title>flask_signals&#45;&gt;flask_app</title><style>.edge>path:hover{stroke-width:8}</style>
<path fill="none" stroke="black" d="M249.6,-612.7C249.6,-605.41 249.6,-596.73 249.6,-588.54"/>
<polygon fill="#85e722" stroke="black" points="253.1,-588.62 249.6,-578.62 246.1,-588.62 253.1,-588.62"/>
</g>
<!-- flask_signals&#45;&gt;flask_ctx -->
<g id="edge28" class="edge">
<title>flask_signals&#45;&gt;flask_ctx</title><style>.edge>path:hover{stroke-width:8}</style>
<path fill="none" stroke="black" d="M237.73,-613.43C230.37,-603.05 220.79,-589.35 212.6,-577 198.94,-556.4 184.06,-532.69 173.07,-514.92"/>
<polygon fill="#85e722" stroke="black" points="176.11,-513.18 167.89,-506.51 170.15,-516.86 176.11,-513.18"/>
</g>
<!-- flask_signals&#45;&gt;flask_helpers -->
<g id="edge29" class="edge">
<title>flask_signals&#45;&gt;flask_helpers</title><style>.edge>path:hover{stroke-width:8}</style>
<path fill="none" stroke="black" d="M288.58,-624.13C324.91,-616.36 377.05,-598.79 401.6,-560"/>
<path fill="none" stroke="black" d="M401.6,-558C462.83,-461.24 326.28,-345.2 258.67,-295.96"/>
<polygon fill="#85e722" stroke="black" points="261.01,-293.33 250.84,-290.35 256.93,-299.02 261.01,-293.33"/>
</g>
<!-- flask_signals&#45;&gt;flask_templating -->
<g id="edge30" class="edge">
<title>flask_signals&#45;&gt;flask_templating</title><style>.edge>path:hover{stroke-width:8}</style>
<path fill="none" stroke="black" d="M401.6,-558C487.41,-462.71 481.74,-393.11 439.6,-272"/>
<path fill="none" stroke="black" d="M439.6,-270C425.02,-241.69 393.35,-223.63 367.09,-212.95"/>
<polygon fill="#85e722" stroke="black" points="368.6,-209.79 358.01,-209.49 366.11,-216.33 368.6,-209.79"/>
</g>
<!-- flask_templating&#45;&gt;flask -->
<g id="edge31" class="edge">
<title>flask_templating&#45;&gt;flask</title><style>.edge>path:hover{stroke-width:8}</style>
<path fill="none" stroke="black" d="M303.85,-180.7C293.16,-172.2 280.11,-161.81 268.42,-152.51"/>
<polygon fill="blue" stroke="black" points="270.6,-149.78 260.59,-146.29 266.24,-155.25 270.6,-149.78"/>
</g>
<!-- flask_wrappers&#45;&gt;flask -->
<g id="edge33" class="edge">
<title>flask_wrappers&#45;&gt;flask</title><style>.edge>path:hover{stroke-width:8}</style>
<path fill="none" stroke="black" d="M170.6,-198C174.9,-179.87 188.02,-164.33 201.52,-152.53"/>
<polygon fill="blue" stroke="black" points="203.64,-155.31 209.18,-146.28 199.22,-149.88 203.64,-155.31"/>
<path fill="none" stroke="black" d="M159.6,-270C159.29,-238.51 163.33,-230.64 170.6,-200"/>
</g>
<!-- flask_wrappers&#45;&gt;flask_app -->
<g id="edge34" class="edge">
<title>flask_wrappers&#45;&gt;flask_app</title><style>.edge>path:hover{stroke-width:8}</style>
<path fill="none" stroke="black" d="M249.6,-416C263.75,-459.1 257.56,-513.6 252.96,-540.85"/>
<path fill="none" stroke="black" d="M183.79,-356.25C206.38,-365.43 232.5,-380.46 245.09,-403.59"/>
<polygon fill="blue" stroke="black" points="241.81,-404.83 249,-412.61 248.23,-402.04 241.81,-404.83"/>
</g>
<!-- flask_wrappers&#45;&gt;flask_blueprints -->
<g id="edge35" class="edge">
<title>flask_wrappers&#45;&gt;flask_blueprints</title><style>.edge>path:hover{stroke-width:8}</style>
<path fill="none" stroke="black" d="M159.6,-270C159.44,-253.5 150.38,-237.88 140.35,-225.59"/>
<polygon fill="blue" stroke="black" points="143.24,-223.57 133.99,-218.41 138,-228.21 143.24,-223.57"/>
<path fill="none" stroke="black" d="M149.93,-324.7C154.48,-310.69 159.78,-290.32 159.6,-272"/>
</g>
<!-- flask_wrappers&#45;&gt;flask_ctx -->
<g id="edge36" class="edge">
<title>flask_wrappers&#45;&gt;flask_ctx</title><style>.edge>path:hover{stroke-width:8}</style>
<path fill="none" stroke="black" d="M141.97,-361.48C140.62,-379.49 139.4,-408.33 142.6,-433 143.65,-441.12 145.58,-449.76 147.67,-457.66"/>
<polygon fill="blue" stroke="black" points="144.26,-458.45 150.36,-467.1 150.99,-456.53 144.26,-458.45"/>
</g>
<!-- flask_wrappers&#45;&gt;flask_helpers -->
<g id="edge38" class="edge">
<title>flask_wrappers&#45;&gt;flask_helpers</title><style>.edge>path:hover{stroke-width:8}</style>
<path fill="none" stroke="black" d="M171.88,-317.26C179.45,-310.63 187.65,-303.46 195.23,-296.83"/>
<polygon fill="blue" stroke="black" points="169.74,-314.48 164.51,-323.7 174.34,-319.75 169.74,-314.48"/>
<polygon fill="blue" stroke="black" points="197.41,-299.56 202.64,-290.34 192.81,-294.29 197.41,-299.56"/>
</g>
<!-- flask_wrappers&#45;&gt;flask_json -->
<g id="edge39" class="edge">
<title>flask_wrappers&#45;&gt;flask_json</title><style>.edge>path:hover{stroke-width:8}</style>
<path fill="none" stroke="black" d="M115.68,-317.26C108.19,-310.63 100.1,-303.46 92.62,-296.83"/>
<polygon fill="blue" stroke="black" points="113.13,-319.68 122.94,-323.69 117.78,-314.44 113.13,-319.68"/>
<polygon fill="blue" stroke="black" points="95.12,-294.36 85.31,-290.35 90.47,-299.6 95.12,-294.36"/>
</g>
<!-- psycopg -->
<g id="node13" class="node">
<title>psycopg</title><style>.edge>path:hover{stroke-width:8}</style>
<ellipse fill="#40bfc0" stroke="black" cx="498.6" cy="-199" rx="31.21" ry="18"/>
<text xml:space="preserve" text-anchor="middle" x="498.6" y="-195.12" font-family="Helvetica,sans-Serif" font-size="10.00" fill="#000000">psycopg</text>
</g>
<!-- query_data -->
<g id="node15" class="node">
<title>query_data</title><style>.edge>path:hover{stroke-width:8}</style>
<ellipse fill="#7a49ac" stroke="black" cx="498.6" cy="-127" rx="37.87" ry="18"/>
<text xml:space="preserve" text-anchor="middle" x="498.6" y="-123.12" font-family="Helvetica,sans-Serif" font-size="10.00" fill="#ffffff">query_data</text>
</g>
<!-- psycopg&#45;&gt;query_data -->
<g id="edge40" class="edge">
<title>psycopg&#45;&gt;query_data</title><style>.edge>path:hover{stroke-width:8}</style>
<path fill="none" stroke="black" d="M498.6,-180.7C498.6,-173.41 498.6,-164.73 498.6,-156.54"/>
<polygon fill="#40bfc0" stroke="black" points="502.1,-156.62 498.6,-146.62 495.1,-156.62 502.1,-156.62"/>
</g>
<!-- psycopg_sql -->
<g id="node14" class="node">
<title>psycopg_sql</title><style>.edge>path:hover{stroke-width:8}</style>
<ellipse fill="#53b6b6" stroke="black" cx="557.6" cy="-271" rx="40.53" ry="18"/>
<text xml:space="preserve" text-anchor="middle" x="557.6" y="-267.12" font-family="Helvetica,sans-Serif" font-size="10.00" fill="#000000">psycopg.sql</text>
</g>
<!-- psycopg_sql&#45;&gt;query_data -->
<g id="edge41" class="edge">
<title>psycopg_sql&#45;&gt;query_data</title><style>.edge>path:hover{stroke-width:8}</style>
<path fill="none" stroke="black" d="M556.14,-252.57C554.08,-234.1 549.3,-204.43 538.6,-181 534.08,-171.1 527.45,-161.29 520.88,-152.85"/>
<polygon fill="#53b6b6" stroke="black" points="523.61,-150.66 514.57,-145.14 518.2,-155.1 523.61,-150.66"/>
</g>
<!-- query_data&#45;&gt;app_py -->
<g id="edge42" class="edge">
<title>query_data&#45;&gt;app_py</title><style>.edge>path:hover{stroke-width:8}</style>
<path fill="none" stroke="black" d="M494.03,-108.85C492.1,-97.72 491.66,-83.42 498.6,-73"/>
</g>
</g>
</svg>
